<?xml version="1.0" encoding="utf-8"?>
<!-- Generator: Adobe Illustrator 18.1.1, SVG Export Plug-In . SVG Version: 6.00 Build 0)  -->
<!DOCTYPE svg PUBLIC "-//W3C//DTD SVG 1.1//EN" "http://www.w3.org/Graphics/SVG/1.1/DTD/svg11.dtd">
<svg version="1.1" id="Layer_1" xmlns="http://www.w3.org/2000/svg" xmlns:xlink="http://www.w3.org/1999/xlink" x="0px" y="0px"
	 viewBox="651.4 286.4 297.3 284.7" enable-background="new 651.4 286.4 297.3 284.7" xml:space="preserve">
<rect x="651.4" y="286.4" fill="#D1DD27" width="297.3" height="286"/>
<path d="M807.4,571.1h-14.9c-14.9,0-27-12.1-27-27V313.4c0-14.9,12.1-27,27-27h14.9c14.9,0,27,12.1,27,27v230.7
	C834.4,559,822.4,571.1,807.4,571.1z"/>
<path d="M926,460.9H674c-12.4,0-22.6-10.1-22.6-22.6V422c0-12.4,10.1-22.6,22.6-22.6h252.1c12.4,0,22.6,10.1,22.6,22.6v16.2
	C948.6,450.8,938.5,460.9,926,460.9z"/>
</svg>
