<?xml version="1.0" encoding="utf-8"?>
<!-- Generator: Adobe Illustrator 18.1.1, SVG Export Plug-In . SVG Version: 6.00 Build 0)  -->
<!DOCTYPE svg PUBLIC "-//W3C//DTD SVG 1.1//EN" "http://www.w3.org/Graphics/SVG/1.1/DTD/svg11.dtd">
<svg version="1.1" id="Layer_1" xmlns="http://www.w3.org/2000/svg" xmlns:xlink="http://www.w3.org/1999/xlink" x="0px" y="0px"
	 viewBox="651.4 276.1 297.3 286" enable-background="new 651.4 276.1 297.3 286" xml:space="preserve">
<rect x="651.4" y="276.1" fill="#D1DD27" width="297.3" height="286"/>
<rect x="694.2" y="315.5" fill="#FFFFFF" stroke="#231F20" stroke-width="7" stroke-miterlimit="10" width="208" height="206.6"/>
<rect x="796.5" y="315.5" fill="#231F20" stroke="#231F20" stroke-miterlimit="10" width="3.8" height="206.6"/>
<rect x="698.5" y="418.4" fill="#231F20" stroke="#231F20" stroke-width="6" stroke-miterlimit="10" width="195.8" height="1.5"/>
<path fill="none" stroke="#000000" stroke-width="5" stroke-miterlimit="10" d="M846.2,443l-22-23.6c0,0,42.4-27.3,14.3-50.6
	c0,0-19.1-14.7-36.5,7.6l-1,19.1l-1,16.9l36.1,39.7L846.2,443z"/>
<path fill="none" stroke="#000000" stroke-width="6" stroke-miterlimit="10" d="M754.2,444l20.5-24.8c0,0-44-24.5-17.3-49.6
	c0,0,18.1-15.8,37,5.5l2.2,19l1.9,16.8l-33.7,41.7L754.2,444z"/>
</svg>
