<?xml version="1.0" encoding="utf-8"?>
<!-- Generator: Adobe Illustrator 18.1.1, SVG Export Plug-In . SVG Version: 6.00 Build 0)  -->
<!DOCTYPE svg PUBLIC "-//W3C//DTD SVG 1.1//EN" "http://www.w3.org/Graphics/SVG/1.1/DTD/svg11.dtd">
<svg version="1.1" id="Layer_1" xmlns="http://www.w3.org/2000/svg" xmlns:xlink="http://www.w3.org/1999/xlink" x="0px" y="0px"
	 viewBox="493 190 320 285.5" enable-background="new 493 190 320 285.5" xml:space="preserve">
<rect x="493" y="190" fill="#D1DD27" stroke="#D1DD27" stroke-miterlimit="10" width="320" height="285.5"/>
<g>
	<path stroke="#000000" stroke-miterlimit="10" d="M653.5,348.2c-39.7,0-71.7,56.6-71.7,126.5h0.3c3.3-64.6,34-115.2,71.5-115.2
		s68.3,50.6,71.5,115.2h0.3C725.2,404.8,693,348.2,653.5,348.2z"/>
	<ellipse stroke="#000000" stroke-miterlimit="10" cx="653.5" cy="262.8" rx="41.9" ry="72.8"/>
	<path stroke="#000000" stroke-miterlimit="10" d="M562.5,315.8c17.2,0.4,31.2-23,31.4-52.2c0.1-29.2-13.6-53.2-30.7-53.6
		c-17.2-0.4-31.2,23-31.4,52.2S545.3,315.5,562.5,315.8z"/>
	<path stroke="#000000" stroke-miterlimit="10" d="M780,263.5c0.1-29.2-13.6-53.2-30.7-53.6c-17.2-0.4-31.2,23-31.4,52.2
		c-0.1,29.2,13.6,53.2,30.7,53.6C765.7,316.2,779.7,292.8,780,263.5z"/>
	<path stroke="#000000" stroke-miterlimit="10" d="M586.9,353.2c-5.7-3.4-11.7-5.2-18-5.3c-36.1-0.8-65.9,56.3-66.3,127.6h0.3
		c3.4-65.9,31.8-116.9,65.9-116c5.6,0.1,10.9,1.6,16.1,4.4C586.8,364.6,588.5,354.2,586.9,353.2z"/>
	<path stroke="#000000" stroke-miterlimit="10" d="M745.9,348.5c-6.4,0-12.7,1.6-18.7,4.8c-1.8,1,0.1,11.2,1.9,10.4
		c5.3-2.5,10.9-3.8,16.6-3.8c35.3,0.3,64.2,51.1,67.1,115.8h0.3C813.4,405.6,783.3,348.8,745.9,348.5z"/>
</g>
</svg>
