<?xml version="1.0" encoding="utf-8"?>
<!-- Generator: Adobe Illustrator 18.1.1, SVG Export Plug-In . SVG Version: 6.00 Build 0)  -->
<!DOCTYPE svg PUBLIC "-//W3C//DTD SVG 1.1//EN" "http://www.w3.org/Graphics/SVG/1.1/DTD/svg11.dtd">
<svg version="1.1" id="Layer_1" xmlns="http://www.w3.org/2000/svg" xmlns:xlink="http://www.w3.org/1999/xlink" x="0px" y="0px"
	 viewBox="651.9 281.6 297.3 286" enable-background="new 651.9 281.6 297.3 286" xml:space="preserve">
<path fill="#9A9090" d="M895.2,340.1"/>
<rect x="651.9" y="281.6" fill="#D1DD27" width="297.3" height="286"/>
<path fill="#231F20" d="M873.4,535H735.5c-5.9,0-10.6-4.8-10.6-10.6v-7.1c0-5.9,4.8-10.6,10.6-10.6h137.9c5.9,0,10.6,4.8,10.6,10.6
	v7.1C884,530.2,879.2,535,873.4,535z"/>
<line fill="none" stroke="#231F20" stroke-width="3" stroke-miterlimit="10" x1="785.4" y1="429.1" x2="785.4" y2="513.7"/>
<line fill="none" stroke="#231F20" stroke-width="3" stroke-miterlimit="10" x1="825.8" y1="431.6" x2="825.8" y2="513.7"/>
<line fill="none" stroke="#231F20" stroke-width="3" stroke-miterlimit="10" x1="683.3" y1="314.2" x2="785.4" y2="431.6"/>
<line fill="none" stroke="#231F20" stroke-width="3" stroke-miterlimit="10" x1="825.9" y1="431.6" x2="925.5" y2="314.2"/>
<line fill="none" stroke="#231F20" stroke-width="3" stroke-miterlimit="10" x1="683.3" y1="314.2" x2="925.5" y2="314.2"/>
<path fill="none" stroke="#231F20" stroke-width="3" stroke-miterlimit="10" d="M838.6,395.5L838.6,395.5c-7.1,0-12.8-5.7-12.8-12.8
	v-7.5c0-7.1,5.7-12.8,12.8-12.8l0,0c7.1,0,12.8,5.7,12.8,12.8v7.5C851.3,389.6,845.5,395.5,838.6,395.5z"/>
</svg>
